          <svg viewBox="-236.86017478152309 -102 742.103620474407 200" xmlns="http://www.w3.org/2000/svg" xmlns:xlink="http://www.w3.org/1999/xlink" version="1.1" class="jsx-2263963463 artboard-inner" style="width: 200px; height: 50px; max-height: 100%;">
  <g transform="translate(0 49.875156054931324) scale(1.7339436815092242)" fill="#232323">
    <g id="line1">
      <path d="M0 0L12.960 0L12.960-40.176L28.800-24.120L44.712-40.176L44.712 0L57.600 0L57.600-57.600L44.712-57.600L28.800-42.624L12.960-57.600L0-57.600Z"></path>
      <path d="M113.400 0L113.400-57.600L64.440-57.600L64.440 0ZM77.328-12.888L77.328-44.712L100.512-44.712L100.512-12.888Z

            M69.954-72.976
            L69.954-61.288
            L89.000-68.264
            L107.962-61.288
            L107.962-72.976
            L89.000-80.040Z

            M83.714 10.832
            L83.714 21.816
            L95.202 21.816
            L95.202 10.832Z     "></path>
      <path d="M165.312 0.072L165.312-12.816L133.128-12.816L133.128-44.640L165.312-44.640L165.312-57.528L120.240-57.528L120.240 0.072Z"></path>
      <path d=""></path>
      <path d="M245.016-57.600L231.768-57.600L220.104-12.888L212.040-12.888L212.040-57.600L199.152-57.600L199.152 0L230.040 0Z"></path>
      <path d="M246.600-57.600L246.600 0L259.488 0L259.488-34.992L278.496-23.688L278.496 0L291.384 0L291.384-57.600L278.496-57.600L278.496-39.384L259.488-50.688L259.488-57.600Z"></path>
    </g>
  </g>
  <g transform="rotate(180 -137 -2) translate(-238.57323701749618 -103.7130622359731) scale(2.1413277630581096)" id="logomark">
    <g fill="#baa256">
      <path d="M92.7.8H2.1C1.5 1 1 1.5.8 2.2v90.6c.2.7.7 1.2 1.4 1.4h90.4c.8-.3 1.4-.8 1.6-1.6V2.2C94 1.5 93.5 1 92.7.8zM17.3 66c-.1.8-.1 1.7-.2 2.5-.2 1.5-.3 2.9-.4 4.4 0 .5-.1.9-.1 1.4 0 .7-.1 1.5-.1 2.2l-.3 5.4c-.1 1.1-.2 2.3-.2 3.3 0 1.2-.1 2.3-.1 3.5 0 .5-.1 1-.1 1.5H4.6V4.5c.7 0 1.3 0 2-.3h6.8c.4 0 .5.1.5.5 0 1 .2 2.1.3 3.1.1.8.1 1.5.2 2.2.2 1.6.3 3.1.4 4.7.1.6.1 1.2.1 1.8.1 1.9.1 3.7.1 5.5 0 1-.2 1.9-.2 2.9 0 .4.2.6.6.6.4 0 .6-.2.6-.6.1-1.9.2-3.9.2-5.8 0-1.5-.1-3-.2-4.5-.1-1.2-.2-2.5-.3-3.7-.1-1.1-.3-2.2-.4-3.3-.1-1-.2-2.1-.3-3.2h11.3c.1 1.3.3 2.6.4 3.9s.3 2.5.3 3.8c.1 2.2.1 4.5.1 6.7 0 1.3-.2 2.7-.3 4-.2 1.9-.5 3.8-1 5.7-.5 2-1.3 3.9-2.2 5.8-1 1.9-1.7 3.9-2.2 6-.6 2.4-1.1 4.7-1.6 7.1-.3 1.3-.5 2.7-.7 4.1-.1 1.2-.3 2.3-.5 3.5-.1.9-.2 1.7-.3 2.6-.2.9-.3 1.9-.4 2.8-.1.7-.1 1.4-.2 2.1-.2 1.3-.3 2.3-.4 3.5zm24-.8c-.2 1.4-.3 2.8-.4 4.2 0 .5-.1.9-.1 1.4-.1 1.2-.1 2.3-.2 3.5-.1 1.7-.2 3.3-.3 5-.1 1.2-.2 2.5-.2 3.7-.1 1.7-.1 3.5-.2 5.3 0 .7-.1 1.3-.1 2-3.2 0-6.4 0-9.6-.2V90c0-3.3-.1-6.7-.1-10 0-1.7.1-3.5.1-5.2 0-1 .1-2 .1-3 .1-1.3.1-2.7.2-4.1.1-1.5.2-2.9.3-4.3.1-1.6.3-3.3.5-4.9.2-1.8.5-3.6 1-5.3.1-.3-.2-.7-.5-.8-.3-.1-.6 0-.7.4-.2.9-.4 1.9-.6 2.8-.2 1.3-.3 2.5-.5 3.7-.1.8-.1 1.5-.2 2.2-.2 1.4-.3 2.9-.4 4.3 0 .6-.1 1.1-.1 1.7 0 1.1-.1 2.1-.1 3.2 0 1.2-.1 2.4-.1 3.6 0 .9-.1 1.9-.1 2.8-.1 3.5-.1 6.9-.1 10.4 0 .9.1 1.8.1 2.7H17.8c0-.4.1-.7.1-1.1v-.2c0-1.3.1-2.6.1-3.9.1-1.4.1-2.9.2-4.3.1-1.1.1-2.1.2-3.2.1-1.5.2-2.9.3-4.4.1-1.1.2-2.3.3-3.5.2-1.5.4-3.1.5-4.7.1-1.1.2-2.1.3-3.2.1-1.2.3-2.4.4-3.6.2-1.1.3-2.1.4-3.2.1-.9.3-1.9.4-2.8.2-.9.3-1.9.5-2.9.2-1.4.5-2.8.8-4.2.6-2.2 1.1-4.4 1.8-6.6.4-1.2.9-2.4 1.5-3.6 1.1-2.4 1.9-4.9 2.4-7.5.2-1.2.4-2.5.6-3.7.1-.6.2-1.3.2-1.9.1-2.9.2-5.9.2-8.8 0-1.5-.3-3-.1-4.6-.1-.9-.2-1.9-.3-2.8-.1-.3-.1-.6-.2-1h21.3c.9 0 .9 0 1 .9l.3 3c.1 1.1.2 2.2.2 3.3.1 1.6.1 3.2.1 4.8-.1 1.3-.1 2.7-.3 4-.4 3.2-.9 6.3-2 9.3-.5 1.1-1 2.3-1.5 3.4-.9 1.8-1.6 3.8-2.1 5.8-.6 2.2-1.1 4.4-1.6 6.7-.4 1.5-.6 3.1-.8 4.7s-.5 3.3-.7 4.9c-.2 1.2-.3 2.4-.4 3.6-.1 1.4-.3 2.7-.4 4-.1.9-.1 1.6-.2 2.3zm27.8 9.5c-.2 1-.3 2.1-.4 3.1-.4 2.7-.2 5.4-.2 8.1 0 1.4.2 2.7.3 4.1v.4H47.3v-6.7c0-1 .1-2.1.1-3.2.1-1.1.1-2.3.2-3.4.2-2.2.3-4.3.9-6.4.1-.4-.1-.7-.4-.8-.4-.1-.7.1-.8.5l-.6 3.9c-.2 1.2-.2 2.4-.3 3.6-.1 1.5-.2 2.9-.2 4.4-.1 2.6-.1 5.2-.1 7.8v.3c-1.6 0-3.1 0-4.5.1 0-.6.1-1.1.1-1.7v-.3c0-1.4.1-2.9.1-4.3.1-1.4.1-2.7.2-4.1.1-1.1.1-2.2.2-3.3l.3-4.5c.1-1.1.2-2.3.3-3.5.2-1.6.4-3.2.5-4.8.1-.8.1-1.5.2-2.3.2-1 .3-2 .4-3l.3-2.7c.1-.9.2-1.7.3-2.5.1-.9.3-1.8.4-2.7.2-1.3.3-2.6.6-3.8.5-2.3.9-4.6 1.5-6.9.5-1.9 1.1-3.9 2-5.7.7-1.5 1.4-3.1 2-4.7.7-1.9 1.2-3.8 1.4-5.8.1-1.2.3-2.5.4-3.7.1-1 .2-2 .2-3 .1-1.6.1-3.2.1-4.8-.1-1.6-.2-3.1-.3-4.7-.1-.9-.3-1.9-.4-2.8v-.4h13.9c0 .6.1 1.2.1 1.8 0 1.2 0 2.5.1 3.7l.3 3.9c.1 1.7.3 3.3.5 5 .2 1.3.3 2.7.5 4 .2 1.5.4 2.9.7 4.4.2 1.5.5 3.1.8 4.6.3 1.6.6 3.1.9 4.6.2 1.1.4 2.3.6 3.5.1 1 .3 2 .4 3 .1.6.1 1.3.2 1.9.2 1.6.3 3.1.4 4.7v.4c0 2.2.1 4.4 0 6.6-.1 1.5-.3 3-.4 4.5-.1 1.1-.2 2.3-.4 3.4-.2 1.3-.4 2.6-.7 3.9-.4 2.1-.8 4.1-1.2 6.3zm21.4 15.5h-6.8c0-.5-.1-.9-.1-1.4 0-.7-.1-1.4-.1-2.1-.1-2.9-.2-5.7-.2-8.6 0-1.4.1-2.9.2-4.3.1-1.5.3-3 .5-4.5.3-2.3.8-4.7 1.5-6.9.2-.5.4-1.1.6-1.6.2-.6-.1-1-.7-.9-.2 0-.4.3-.5.5-.4 1.2-.8 2.4-1.1 3.6-.4 1.7-.7 3.4-1 5.1-.2 1-.2 2-.3 3l-.3 5.1c-.1 2-.1 3.9-.1 5.9 0 1.5.1 2.9.2 4.4 0 .9.1 1.8.2 2.7H70.9c-.1-.8-.2-1.7-.2-2.5-.1-2.5-.2-5-.2-7.5 0-1.5.1-3.1.4-4.6.4-2.6 1-5.2 1.5-7.8.3-1.3.4-2.7.6-4 .2-1.5.4-3 .5-4.6.1-1.5.2-2.9.2-4.4 0-1.6.1-3.1 0-4.6-.1-1.6-.3-3.3-.4-4.9-.1-.9-.2-1.9-.3-2.9-.2-1.1-.3-2.2-.5-3.3-.2-1.2-.4-2.5-.7-3.8-.4-1.5-.7-3.1-1-4.6-.3-1.3-.5-2.6-.7-3.9-.2-1-.3-2.1-.5-3.2-.2-1-.3-2-.4-3-.2-.9-.3-1.9-.4-2.8-.1-.8-.1-1.5-.2-2.2-.2-1.3-.3-2.7-.4-4 0-.5-.1-1.1-.1-1.6 0-1-.1-2-.1-3V4.5c3.4 0 6.8 0 10.4-.1 0 .7-.1 1.3-.1 2-.1.1-.1.2-.1.3 0 .9-.1 1.8-.1 2.7-.1 2.6-.1 5.1-.2 7.6 0 1.1-.1 2.1-.1 3.2 0 1.5.1 3.1.1 4.6.1 1.3.1 2.6.2 3.9.1 1.5.2 3 .4 4.5.3 3.6.9 7.1 1.8 10.5.1.6.3 1.2.6 1.7.2.4.8.5 1.2.3.5-.2.6-.6.5-1.1-.5-2.1-1.1-4.2-1.5-6.3-.4-1.6-.5-3.3-.7-4.9l-.3-3-.3-5.1c0-.9-.1-1.7-.1-2.5 0-1.4-.1-2.8-.1-4.2 0-1.8.1-3.6.1-5.4.1-1.5.1-3 .2-4.5.1-1.3.2-2.7.4-4.2h10.2v85.7z"></path>
      <path d="M67.6 47.8c-.2-1.4-.3-2.9-.6-4.4-.4-2.4-1-4.9-1.9-7.2-.7-1.7-1.5-3.2-2.8-4.4-.6-.6-1.3-1-2.2-1-1.3-.1-2.3.5-3.1 1.4-.9.9-1.5 2.1-2 3.3-1 2.4-1.7 4.9-2.1 7.5-.3 2.2-.6 4.5-.8 6.8-.2 1.6-.2 3.2-.2 4.8v3.8c.1 1.8.2 3.1.4 4.3.1 1.4.3 2.9.5 4.3.3 2.2.9 4.4 1.6 6.6.7 2.1 1.5 4.1 3.2 5.6 1.2 1.1 2.8 1.3 4.2.4 1.2-.7 1.9-1.8 2.5-3 .6-1.3 1.2-2.8 1.6-4.2.5-1.7.9-3.5 1.2-5.3.3-1.3.4-2.7.5-4 .2-1.4.4-2.9.4-4.4 0-2.3 0-4.7-.1-7-.1-1.3-.2-2.7-.3-3.9zM65.8 63c-.2 1.4-.3 2.9-.6 4.3-.3 1.5-.6 2.9-1 4.3-.4 1.5-.9 3-1.7 4.3-.4.7-.9 1.3-1.5 1.9s-1.4.6-2 0c-.5-.5-1-1.1-1.4-1.8-1.3-2.2-1.9-4.7-2.4-7.2-.3-1.8-.6-3.5-.8-5.3-.2-1.1-.3-2.2-.3-3.3-.1-2-.2-4-.2-6 0-1.4.1-2.8.2-4.2.2-2.1.4-4.1.7-6.1.4-2.4 1-4.9 1.9-7.2.5-1.2 1-2.4 2-3.3 1-.9 1.7-.8 2.5 0s1.4 1.8 1.8 2.8c.5 1.4 1 2.8 1.3 4.2.3 1.3.6 2.6.8 3.9.2 1.1.4 2.1.5 3.2.1.8.1 1.5.2 2.3.1.9.2 1.9.2 2.8v2.8c0 1 .1 1.9.2 2.8-.1 1.6-.2 3.2-.4 4.8z"></path>
      <path d="M64.3 52c-.1-1.5-.3-2.9-.6-4.4-.3-1.7-.8-3.5-1.9-4.9-.9-1.1-2.2-1.4-3.4-.3-.8.8-1.2 1.8-1.6 2.8-.9 2.4-1.2 5-1.4 7.6-.1 1.3 0 2.6 0 3.9 0 1.1.1 2.1.2 3.2l.6 3.6c.3 1.7.8 3.3 1.8 4.7.9 1.2 2.3 1.6 3.5.4.8-.8 1.1-1.7 1.5-2.7.9-2.2 1.2-4.6 1.4-7 .1-1.1 0-2.2 0-3.3 0-1.2 0-2.4-.1-3.6zm-1.1 6.9c-.3 2.4-.6 4.7-1.4 6.9-.3.8-.7 1.5-1.3 2.1-.5.4-.8.6-1.3 0-.5-.7-.9-1.4-1.2-2.2-.6-1.7-1-3.4-1.1-5.1-.1-1.3-.3-2.6-.3-3.9-.1-1.2-.1-2.4 0-3.6.2-2.6.5-5.1 1.4-7.5.3-.8.7-1.6 1.3-2.2.4-.5.9-.5 1.4.1.7.8 1.1 1.8 1.4 2.8.3 1.1.6 2.3.8 3.5.1.5.2 1.1.2 1.6.1 1.4.1 2.8.2 4.2h-.1c0 .9.1 2.1 0 3.3z"></path>
    </g>
  </g>
</svg>
